# xmcd
#
# Track frame offsets: 
#        150
#        23085
#        42590
#        63450
#        85923
#        107213
#        129963
#        149878
#        174153
#        198978
#        217995
#        240065
#        261440
#        282665
#        299760
#        325058
#
# Disc length: 4555 seconds
#
# Revision: 3
# Processed by: cddbd v1.5.1PL0 Copyright (c) Steve Scherf et al.
# Submitted via: ExactAudioCopy v0.95a5
#
DISCID=f711c910
DTITLE=Lisa Stansfield - Lisa Stansfield
DYEAR=1997
DGENRE=Pop
TTITLE0=Never Gonna Fall
TTITLE1=The Real Thing
TTITLE2=I'm Leavin'
TTITLE3=Suzanne
TTITLE4=Never, Never Gonna Give You Up
TTITLE5=Don't Cry For Me
TTITLE6=The Line
TTITLE7=The Very Thought Of You
TTITLE8=You Know How To Love Me
TTITLE9=I Cried My Last Tear, Last Night
TTITLE10=Honest
TTITLE11=Somewhere In Time
TTITLE12=Got Me Missing You
TTITLE13=Footsteps
TTITLE14=The Real Thing (Touch Me)
TTITLE15=People Hold On (Bootleg Mix)
EXTD=
EXTT0=
EXTT1=
EXTT2=
EXTT3=
EXTT4=
EXTT5=
EXTT6=
EXTT7=
EXTT8=
EXTT9=
EXTT10=
EXTT11=
EXTT12=
EXTT13=
EXTT14=
EXTT15=
PLAYORDER=
